<svg style="position:absolute;width:0;height:0" width="0" height="0" version="1.1" xmlns="http://www.w3.org/2000/svg"><defs><symbol id="icon-sandles" viewBox="0 0 57.54 62.02"><defs><style>.\37 5a77e03-54cd-4c6d-9e7e-f208f7369d12{fill:none}.\33 511f2de-b7e0-4c11-b1bc-b50ce9d84c17{clip-path:url(#af12716f-62e9-41fa-bba2-fa7dcd36174f)}</style><clipPath id="af12716f-62e9-41fa-bba2-fa7dcd36174f" transform="translate(-2.06 -.44)"><path class="75a77e03-54cd-4c6d-9e7e-f208f7369d12" d="M2.06.43h59.89v63.13H2.06z"/></clipPath></defs><path d="M15.25.07a20.33 20.33 0 0 0-8.31 2.82c-7 4.17-7 11.67-6.93 13.78.19 6.2 4.24 24.44 4.24 24.44a156.23 156.23 0 0 0 3 15.86c1.11 3.64 2.84 5.68 10 4.89 7.84-.58 9.15-2.14 9-9.16-.41-21.86-.31-29 .07-32.08.06-4.58 0-14.69-3.55-18.5C21.21.47 18.23-.23 15.25.07zm2.47 59.49c-6.61.33-7.49-.25-8.53-3-.25-.67-.75-2.62-1.15-4.35-1-4.25-2.3-15.42-2.3-15.42.07-7.42 1.2-18.76 7.46-21.54l.16-.07.47.14c5.77 1.7 8 9.16 8.89 15.62.66 5.3 1.26 15.76 1.28 21.84 0 2.31 1 6.42-6.28 6.76zm6.51-39.4a29.75 29.75 0 0 1-.9 3.85c-1.34-4.71-3.78-9-8.14-10.61l-.41-4.14-1.4.13-.83.08-1.4.14.39 4c-4.6 2.55-6.5 8.95-7.19 15.16 0 0-1.92-8.37-2.13-12.27-.09-2.07.4-8.61 5.84-11.64a19.65 19.65 0 0 1 7.41-2.57c1.64-.17 4-.18 5.53 1.27 2.15 2 3.48 11.5 3.23 16.6zM50.55 2.89A20.32 20.32 0 0 0 42.28.07c-3-.29-6 .4-7.5 2-3.56 3.84-3.6 13.95-3.54 18.49.38 3.05.48 10.23.07 32.08-.14 7 1.18 8.58 9 9.16 7.16.8 8.9-1.24 10-4.89a151.81 151.81 0 0 0 3-15.86s4.06-18.24 4.25-24.44c.06-2.08.08-9.61-7-13.77zM49.5 52.22c-.4 1.74-.9 3.68-1.15 4.35-1 2.74-1.93 3.31-8.53 3-7.29-.35-6.3-4.46-6.28-6.78 0-6.08.62-16.55 1.27-21.84.87-6.46 3.14-13.92 8.9-15.62l.47-.14.17.07c6.22 2.78 7.39 14.11 7.46 21.55 0 0-1.3 11.17-2.3 15.42zm5.8-35.72c-.19 3.9-2.12 12.27-2.12 12.27-.68-6.21-2.56-12.61-7.18-15.21l.38-4-1.44-.09-.83-.08-1.37-.13-.4 4.15c-4.36 1.64-6.8 5.9-8.14 10.61a30.16 30.16 0 0 1-.9-3.85c-.25-5.12 1.08-14.61 3.22-16.61 1.5-1.45 3.89-1.43 5.54-1.27a19.52 19.52 0 0 1 7.4 2.57c5.45 3 5.94 9.57 5.84 11.64zm0 0" class="3511f2de-b7e0-4c11-b1bc-b50ce9d84c17"/></symbol><symbol id="icon-sunset" viewBox="0 0 62.85 57"><defs><style>.\35 4e5a87e-2c3e-4505-aa0e-7478fd2dd622,.\36 f85dca6-2777-46c4-b4ca-8d58d66efefd{fill:none;stroke:#000;stroke-linejoin:round;stroke-width:2px}.\35 4e5a87e-2c3e-4505-aa0e-7478fd2dd622{stroke-linecap:round}</style></defs><g id="d196cfa5-faa6-47c8-817b-6e817d501d09" data-name="summer-holidays"><g id="c8f8a9bc-23d1-4d5b-a40f-cc3df8ac8707" data-name="outline"><path class="6f85dca6-2777-46c4-b4ca-8d58d66efefd" d="M50.01 33.99a18.81 18.81 0 0 0-18.65-18.65 18.82 18.82 0 0 0-18.65 18.65"/><path class="54e5a87e-2c3e-4505-aa0e-7478fd2dd622" d="M31.36 1v8.61m30.12 15.06l-5.73 1.43m-8.61-11.47l5.74-5.74M1.24 24.67l5.74 1.43m8.61-11.47L9.85 8.89"/><path class="6f85dca6-2777-46c4-b4ca-8d58d66efefd" d="M.17 33.99h62.39"/></g><path class="54e5a87e-2c3e-4505-aa0e-7478fd2dd622" d="M1 44.21s3.07-4.29 8.83 0 8.83 0 8.83 0 3.13-4.35 8.83 0 8.83 0 8.83 0 3.19-4.17 8.83 0 8.83 0 8.83 0 3.68-4.35 7.85 0M4.92 54.31s2.67-3.74 7.69 0 7.69 0 7.69 0 2.72-3.79 7.69 0 7.69 0 7.69 0 2.78-3.63 7.69 0 7.69 0 7.69 0a4.39 4.39 0 0 1 6.84 0"/></g></symbol><symbol id="icon-drink" viewBox="0 0 46.5 61.34"><path d="M46.07 9.59a2 2 0 0 0-1.57-3.23h-7.45a4.21 4.21 0 0 0-1.8-3.5l.59-1.5a1 1 0 0 0-1.86-.69l-.6 1.52A4.18 4.18 0 0 0 29 4.77l-.62 1.59H2A2 2 0 0 0 .43 9.59l21.82 27.78v15.56a6.43 6.43 0 0 1-6.43 6.42h-3.17a1 1 0 1 0 0 2h21.2a1 1 0 0 0 0-2h-3.18a6.43 6.43 0 0 1-6.42-6.42V37.37zm-17.88 9.36a4.45 4.45 0 0 1 2.08.45 6.37 6.37 0 0 0 2.87.61 6.24 6.24 0 0 0 2.62-.51L23.25 35.42 10.74 19.5a6.21 6.21 0 0 0 2.62.51 6.36 6.36 0 0 0 2.89-.61 5 5 0 0 1 4.16 0 7 7 0 0 0 5.73 0 4.44 4.44 0 0 1 2.08-.45zM30.85 5.5a2.18 2.18 0 0 1 4.22.87h-4.56zM2 8.35h42.51l-6.76 8.62a6.3 6.3 0 0 0-2.53.6 5.05 5.05 0 0 1-4.17 0 6.93 6.93 0 0 0-1.4-.47l2-5.14a1 1 0 0 0-1.85-.73l-2.26 5.75a6.3 6.3 0 0 0-2.24.59 5 5 0 0 1-4.16 0 6.36 6.36 0 0 0-2.89-.61 6.36 6.36 0 0 0-2.86.61 4.43 4.43 0 0 1-2.08.45 4.43 4.43 0 0 1-2.06-.45 6.3 6.3 0 0 0-2.53-.6l-6.76-8.6zm23.25 51h-4a8.48 8.48 0 0 0 2-2.46 8.46 8.46 0 0 0 2 2.46zm0 0"/><path d="M25.66 21.83l-3.33 8.48a1 1 0 0 0 .56 1.29 1 1 0 0 0 .36.07 1 1 0 0 0 .93-.63l3.33-8.48a1 1 0 1 0-1.85-.73zm0 0"/></symbol><symbol id="icon-plane" viewBox="0 0 61.24 61.25"><defs><style>.\30 dcbed05-7d20-4c11-9ffe-47ff9215db39,.\33 aa203f7-2937-4b34-b327-e64630a4b88d,.\38 9a8e968-c105-46cc-9de1-ccb375c67acb{fill:none;stroke:#000;stroke-width:2px}.\30 dcbed05-7d20-4c11-9ffe-47ff9215db39{stroke-miterlimit:10}.\33 aa203f7-2937-4b34-b327-e64630a4b88d{stroke-linecap:round;stroke-linejoin:round}.\38 9a8e968-c105-46cc-9de1-ccb375c67acb{stroke-linejoin:round}</style></defs><g id="fd503f4e-c715-4da2-8c9e-8ff08a545463" data-name="plane"><path class="0dcbed05-7d20-4c11-9ffe-47ff9215db39" d="M47.95 21.02l8.96 28.11L53.05 53 38.37 30.6 26.79 42.18l-.09 15.54-1.84 1.84-7.73-15.45"/><path class="0dcbed05-7d20-4c11-9ffe-47ff9215db39" d="M58.65 2.6a5.46 5.46 0 0 1 0 7.73L37.43 31.54m2.79-18.24l-28.1-8.97L8.26 8.2l22.4 14.67-11.59 11.59-15.54.09-1.84 1.84 15.44 7.72"/><path class="0dcbed05-7d20-4c11-9ffe-47ff9215db39" d="M58.65 2.6a5.45 5.45 0 0 0-7.72 0L30.52 23.01M13.18 48.07l8.07-8.08"/><path class="3aa203f7-2937-4b34-b327-e64630a4b88d" d="M54.83 8.57l-2.15-2.15"/><path class="89a8e968-c105-46cc-9de1-ccb375c67acb" d="M28.55 9.28l3.78-3.78a2.29 2.29 0 0 0 0-3.24 2.29 2.29 0 0 0-3.24 0l-5.4 5.36M51.97 32.7l3.77-3.77a2.29 2.29 0 0 1 3.24 0 2.29 2.29 0 0 1 0 3.24l-5.39 5.39M2.96 27.87l9.62-9.62M9.82 27.4l8.01-8.01m16.01 32.04l8.01-8.01m-8.48 14.87l9.62-9.62"/></g></symbol><symbol id="icon-boat" viewBox="0 0 61.23 60.91"><defs><style>.\39 8801797-e7d7-4c20-aedd-6513746df646,.b1e1d0bd-5e30-4153-b4ea-e9cbae764edc,.f059ba3b-6fee-4816-a387-eb3b160d4f57{fill:none;stroke:#000;stroke-linejoin:round;stroke-width:2px}.f059ba3b-6fee-4816-a387-eb3b160d4f57{stroke-linecap:round}.\39 8801797-e7d7-4c20-aedd-6513746df646{stroke-dasharray:2 3}</style></defs><g id="aa1b8511-4335-4343-af03-3957244ca4e8" data-name="cruise"><path class="f059ba3b-6fee-4816-a387-eb3b160d4f57" d="M45.51 58.2c12.2-11.75 10.68-21.36 10.68-21.36l-25.31-9.49a.92.92 0 0 0-.64 0L4.93 36.84S3.42 46.45 15.62 58.2"/><path class="b1e1d0bd-5e30-4153-b4ea-e9cbae764edc" d="M6.76 44.62l23.8-8.05 23.16 8.05m-28.5-27.01v-4.74c0-.77 1-1.39 2.35-1.39h6c1.3 0 2.35.62 2.35 1.39v4.74m14.93 17.23V20.69a2 2 0 0 0-2-2H12.28a2 2 0 0 0-2 2v14.15"/><path class="98801797-e7d7-4c20-aedd-6513746df646" d="M16.68 22.95h29.9"/><path class="b1e1d0bd-5e30-4153-b4ea-e9cbae764edc" d="M30.56 27.34v32.13"/><path class="f059ba3b-6fee-4816-a387-eb3b160d4f57" d="M1 58.03s3-4.18 8.6 0 8.59 0 8.59 0 3-4.24 8.6 0 8.6 0 8.6 0 3.1-4.06 8.6 0 8.6 0 8.6 0 3.59-4.24 7.65 0"/><path class="b1e1d0bd-5e30-4153-b4ea-e9cbae764edc" d="M29.96 7.01V1.27l7.65 2.87-7.65 2.87zm0-7.01v11.47"/></g></symbol><symbol id="icon-flowers" viewBox="0 0 62.42 63.51"><path d="M15.08 24.92S3.6 18.53 7.21 11.25c0 0 8.69-.14 10.6 8" class="406c25e8-ee8d-4a43-8fa6-7b288ad996a9"/><path d="M16.48 23.96s1.63-11.57 10.34-12.63c0 0 4.51 6.6-3.35 13.44" class="406c25e8-ee8d-4a43-8fa6-7b288ad996a9"/><path d="M18.58 25.07s7.63-2.54 14.56 6.08c0 0-4.69 6-12.15.57" class="406c25e8-ee8d-4a43-8fa6-7b288ad996a9"/><path d="M17.87 27.54s8.1 6.82 1.57 14.88c0 0-7.46-1.64-6.27-12.08" class="406c25e8-ee8d-4a43-8fa6-7b288ad996a9"/><path d="M15.41 27.52S10.51 36.67 1 30.69c0 0 3.22-10.11 12.53-6.75" class="406c25e8-ee8d-4a43-8fa6-7b288ad996a9"/><circle cx="17.36" cy="26.2" r="1.81" class="406c25e8-ee8d-4a43-8fa6-7b288ad996a9" transform="rotate(-70.34 16.79 26.644)"/><path d="M40.52 39.05s2-7.28 7.09-7.5c0 0 3.58 0 5 8.67 0 0 7.63.61 8.7 4.9 0 0 1.16 4.35-6.25 7.5 0 0 1.93 6.95-1.91 9.68 0 0-4.66 1.52-9.18-3.75 0 0-6.1 4.13-10.16 1.36 0 0-2.64-4.16 1-10.06 0 0-5.85-5.1-4.37-8.71.05.01 1.63-5.17 10.08-2.09zm2.11-27.75s-1.25-5.07-9.06-3.29c0 0 .33 7.48 7.64 6a4.59 4.59 0 0 1 1.42-2.71zm5.58-.67s4.31-2.88 0-9.63c0 0-6.92 2.86-3.07 9.24a4.59 4.59 0 0 1 3.07.39zm2.63 5.03s4.27 3 9-3.46c0 0-5.15-5.43-9.72.45a4.59 4.59 0 0 1 .72 3.01zm-4 3.81s-1.2 5.09 6.56 7.05c0 0 3.11-6.81-4-8.85a4.59 4.59 0 0 1-2.56 1.8zm-4.77-2.72s-5.21-.41-6 7.56c0 0 7.2 2 8.13-5.35.01 0-1.76-.89-2.13-2.21z" class="406c25e8-ee8d-4a43-8fa6-7b288ad996a9"/><path d="M45.85 47.75s-3.57-3.25-4.29-2.09c-.54.87 4.29 2.09 4.29 2.09s-4.45 1.86-3.7 2.63c.41.43 3-1.63 3.7-2.63 0 0 .7 4.52 1.53 4.2 1.23-.47-1.53-4.2-1.53-4.2s4.68.54 4.45-.86c-.15-.92-4.45.86-4.45.86s1.35-4.18.76-4.5c-1.27-.72-.76 4.5-.76 4.5z" class="406c25e8-ee8d-4a43-8fa6-7b288ad996a9"/><circle cx="46.62" cy="14.95" r=".84" class="406c25e8-ee8d-4a43-8fa6-7b288ad996a9" transform="rotate(-16.41 45.362 17.55)"/></symbol><symbol id="icon-palm-house" viewBox="0 0 63.69 61.43"><defs><style>.\36 9097b61-f01d-46f7-8856-8034b63491a2{fill:none;stroke:#3a3a3c;stroke-linecap:round;stroke-linejoin:round;stroke-width:2px}</style></defs><path d="M13.04 46.66v13.78h13.59v-8.06s-.15-2.36 2.7-2.3h4.71a2.34 2.34 0 0 1 2.49 2.22c.16 2.32 0 8.16 0 8.16H50.6v-13.8zm-3.4-2.72h43.67l-18-13.78a6.43 6.43 0 0 0-8.15 0C21.57 34.3 9.64 43.94 9.64 43.94zm7.31-26.06c-1.42 3.76-1.55 14.09-.25 16.83l4.4-3.42s-1.85-11.41-1.53-13.34c.21-1.26 6.71 2.09 9.18 5 2 2.3.43-7.16-8.89-8.13 0 0 2.75-6.52 13.06-8.66 0 0-10.58-4.56-14.36 6 0 0-2.62-13.11-8.93-10.88 0 0 5.63 8.13 6.31 10.95 0 0-8-5.63-14.95-1.55 0 0 11.88 1.32 14.21 4.32 0 0-10.23.4-9.94 7.9.01-.02 9.75-6.43 11.69-5.02zm27.58 15.84s1.06-7.28 2.25-9.28a25 25 0 0 0-8.67 2.94s1.82-5.83 7.77-5.17c0 0-5.89-4.84-11-5.47 0 0 5.89-4.18 12.55 3.14 0 0 .59-7 7.73-7 0 0-5.2 5.39-5.27 7.86 0 0 7.64-4.67 12.81 1.36 0 0-6.95-.28-11.41.82 0 0 6.11 1.77 3.78 7.14 0 0-3.78-5.73-5.92-4.95 0 0-1.19 2.8-.84 11.39z" class="69097b61-f01d-46f7-8856-8034b63491a2"/></symbol><symbol id="icon-starfish-king" viewBox="0 0 51.85 63.98"><defs><style>.\31 7577bf5-5fd7-4519-8dc1-c006470ddefd{fill:none;stroke:#3a3a3c;stroke-linecap:round;stroke-linejoin:round;stroke-width:2px}</style></defs><path d="M19.72 13.22h12.23l3.23-7.91-6.29 1.98L26.03 1l-2.89 6.11-6.47-1.98 3.05 8.09zm-2.8 17.61s-14.12 0-15.95 3.8c0 0-.76 2.58 11.09 11.54 0 0-3.19 13.82-.91 16.1s14.58-4.86 14.58-4.86 12 7 14.58 5.31c3.62-2.35-.91-15.91-.91-15.91s10.81-8.38 11.42-11.42-10.63-5.16-15.64-4.56c0 0-5.2-14.84-9.26-14.88-3.2-.04-9 14.88-9 14.88z" class="17577bf5-5fd7-4519-8dc1-c006470ddefd"/><circle cx="26.06" cy="32.99" r="2.13" class="17577bf5-5fd7-4519-8dc1-c006470ddefd"/><circle cx="34.23" cy="39.46" r="2.13" class="17577bf5-5fd7-4519-8dc1-c006470ddefd"/><circle cx="31.55" cy="49.2" r="2.13" class="17577bf5-5fd7-4519-8dc1-c006470ddefd"/><circle cx="20.64" cy="49.74" r="2.13" class="17577bf5-5fd7-4519-8dc1-c006470ddefd"/><circle cx="17.86" cy="39.4" r="2.13" class="17577bf5-5fd7-4519-8dc1-c006470ddefd"/><circle cx="26.06" cy="24.21" r=".84" class="17577bf5-5fd7-4519-8dc1-c006470ddefd"/><circle cx="42.68" cy="37.26" r=".84" class="17577bf5-5fd7-4519-8dc1-c006470ddefd"/><circle cx="36.36" cy="56.34" r=".84" class="17577bf5-5fd7-4519-8dc1-c006470ddefd"/><circle cx="15.73" cy="56.34" r=".84" class="17577bf5-5fd7-4519-8dc1-c006470ddefd"/><circle cx="9.33" cy="36.48" r=".84" class="17577bf5-5fd7-4519-8dc1-c006470ddefd"/></symbol><symbol id="icon-dots-three-vertical" viewBox="0 0 20 20"><title>dots-three-vertical</title><path class="path1" d="M10.001 7.8a2.2 2.2 0 1 0 0 4.402A2.2 2.2 0 0 0 10 7.8zm0-2.6A2.2 2.2 0 1 0 9.999.8a2.2 2.2 0 0 0 .002 4.4zm0 9.6a2.2 2.2 0 1 0 0 4.402 2.2 2.2 0 0 0 0-4.402z"/></symbol><symbol id="icon-chevron-down" viewBox="0 0 20 20"><title>chevron-thin-down</title><path class="path1" d="M17.418 6.109c.272-.268.709-.268.979 0s.271.701 0 .969l-7.908 7.83a.697.697 0 0 1-.979 0l-7.908-7.83c-.27-.268-.27-.701 0-.969s.709-.268.979 0L10 13.25l7.418-7.141z"/></symbol><symbol id="icon-chevron-left" viewBox="0 0 20 20"><title>chevron-left</title><path class="path1" d="M12.452 4.516c.446.436.481 1.043 0 1.576L8.705 10l3.747 3.908c.481.533.446 1.141 0 1.574-.445.436-1.197.408-1.615 0-.418-.406-4.502-4.695-4.502-4.695a1.095 1.095 0 0 1 0-1.576s4.084-4.287 4.502-4.695 1.17-.436 1.615 0z"/></symbol><symbol id="icon-search" viewBox="0 0 24 24"><title>search</title><path class="path1" d="M10 1q1.828 0 3.496.715t2.871 1.918 1.918 2.871T19 10q0 1.57-.512 3.008t-1.457 2.609l5.68 5.672Q23 21.578 23 22q0 .43-.285.715T22 23q-.422 0-.711-.289l-5.672-5.68q-1.172.945-2.609 1.457T10 19q-1.828 0-3.496-.715t-2.871-1.918-1.918-2.871T1 10t.715-3.496 1.918-2.871 2.871-1.918T10 1zm0 2q-1.422 0-2.719.555T5.047 5.047 3.555 7.281 3 10t.555 2.719 1.492 2.234 2.234 1.492T10 17t2.719-.555 2.234-1.492 1.492-2.234T17 10t-.555-2.719-1.492-2.234-2.234-1.492T10 3z"/></symbol><symbol id="icon-chevron-right" viewBox="0 0 20 20"><title>chevron-right</title><path class="path1" d="M9.163 4.516c.418.408 4.502 4.695 4.502 4.695a1.095 1.095 0 0 1 0 1.576s-4.084 4.289-4.502 4.695c-.418.408-1.17.436-1.615 0-.446-.434-.481-1.041 0-1.574L11.295 10 7.548 6.092c-.481-.533-.446-1.141 0-1.576s1.197-.409 1.615 0z"/></symbol><symbol id="icon-chevron-small-down" viewBox="0 0 20 20"><title>chevron-small-down</title><path class="path1" d="M13.418 7.859c.271-.268.709-.268.978 0s.272.701 0 .969l-3.908 3.83a.697.697 0 0 1-.979 0l-3.908-3.83c-.27-.267-.27-.701 0-.969s.709-.268.978 0L10 11l3.418-3.141z"/></symbol><symbol id="icon-chevron-small-left" viewBox="0 0 20 20"><title>chevron-small-left</title><path class="path1" d="M12.141 13.418c.268.271.268.709 0 .978s-.701.272-.969 0l-3.83-3.908a.697.697 0 0 1 0-.979l3.83-3.908c.267-.27.701-.27.969 0s.268.709 0 .978L9 10l3.141 3.418z"/></symbol><symbol id="icon-chevron-small-right" viewBox="0 0 20 20"><title>chevron-small-right</title><path class="path1" d="M11 10L7.859 6.58a.695.695 0 0 1 0-.978.68.68 0 0 1 .969 0l3.83 3.908a.697.697 0 0 1 0 .979l-3.83 3.908c-.267.272-.701.27-.969 0s-.268-.707 0-.978L11 10z"/></symbol><symbol id="icon-chevron-small-up" viewBox="0 0 20 20"><title>chevron-small-up</title><path class="path1" d="M6.582 12.141c-.271.268-.709.268-.978 0s-.272-.701 0-.969l3.908-3.83a.697.697 0 0 1 .979 0l3.908 3.83c.27.267.27.701 0 .969s-.709.268-.979 0L10 9l-3.418 3.141z"/></symbol><symbol id="icon-chevron-thin-down" viewBox="0 0 20 20"><title>chevron-thin-down</title><path class="path1" d="M17.418 6.109c.272-.268.709-.268.979 0s.271.701 0 .969l-7.908 7.83a.697.697 0 0 1-.979 0l-7.908-7.83c-.27-.268-.27-.701 0-.969s.709-.268.979 0L10 13.25l7.418-7.141z"/></symbol><symbol id="icon-chevron-thin-left" viewBox="0 0 20 20"><title>chevron-thin-left</title><path class="path1" d="M13.891 17.418c.268.272.268.709 0 .979s-.701.271-.969 0l-7.83-7.908a.697.697 0 0 1 0-.979l7.83-7.908c.268-.27.701-.27.969 0s.268.709 0 .979L6.75 10l7.141 7.418z"/></symbol><symbol id="icon-chevron-thin-right" viewBox="0 0 20 20"><title>chevron-thin-right</title><path class="path1" d="M13.25 10L6.109 2.58a.697.697 0 0 1 0-.979.68.68 0 0 1 .969 0l7.83 7.908a.697.697 0 0 1 0 .979l-7.83 7.908c-.268.271-.701.27-.969 0s-.268-.707 0-.979L13.25 10z"/></symbol><symbol id="icon-chevron-thin-up" viewBox="0 0 20 20"><title>chevron-thin-up</title><path class="path1" d="M2.582 13.891c-.272.268-.709.268-.979 0s-.271-.701 0-.969l7.908-7.83a.697.697 0 0 1 .979 0l7.908 7.83c.27.268.27.701 0 .969s-.709.268-.978 0L10 6.75l-7.418 7.141z"/></symbol><symbol id="icon-chevron-up" viewBox="0 0 20 20"><title>chevron-up</title><path class="path1" d="M15.484 12.452c-.436.446-1.043.481-1.576 0L10 8.705l-3.908 3.747c-.533.481-1.141.446-1.574 0-.436-.445-.408-1.197 0-1.615.406-.418 4.695-4.502 4.695-4.502a1.095 1.095 0 0 1 1.576 0s4.287 4.084 4.695 4.502.436 1.17 0 1.615z"/></symbol><symbol id="icon-phone" viewBox="0 0 32 32"><title>phone</title><path class="path1" d="M22 20c-2 2-2 4-4 4s-4-2-6-4-4-4-4-6 2-2 4-4-4-8-6-8-6 6-6 6c0 4 4.109 12.109 8 16s12 8 16 8c0 0 6-4 6-6s-6-8-8-6z"/></symbol><symbol id="icon-location2" viewBox="0 0 32 32"><title>location2</title><path class="path1" d="M16 0C10.477 0 6 4.477 6 10c0 10 10 22 10 22s10-12 10-22c0-5.523-4.477-10-10-10zm0 16.125a6.125 6.125 0 1 1 0-12.25 6.125 6.125 0 0 1 0 12.25zM12.125 10a3.875 3.875 0 1 1 7.75 0 3.875 3.875 0 0 1-7.75 0z"/></symbol><symbol id="icon-clock" viewBox="0 0 32 32"><title>clock</title><path class="path1" d="M20.586 23.414L14 16.828V8h4v7.172l5.414 5.414zM16 0C7.163 0 0 7.163 0 16s7.163 16 16 16 16-7.163 16-16S24.837 0 16 0zm0 28C9.373 28 4 22.627 4 16S9.373 4 16 4s12 5.373 12 12-5.373 12-12 12z"/></symbol><symbol id="icon-plus" viewBox="0 0 32 32"><title>plus</title><path class="path1" d="M31 12H20V1a1 1 0 0 0-1-1h-6a1 1 0 0 0-1 1v11H1a1 1 0 0 0-1 1v6a1 1 0 0 0 1 1h11v11a1 1 0 0 0 1 1h6a1 1 0 0 0 1-1V20h11a1 1 0 0 0 1-1v-6a1 1 0 0 0-1-1z"/></symbol><symbol id="icon-minus" viewBox="0 0 32 32"><title>minus</title><path class="path1" d="M0 13v6a1 1 0 0 0 1 1h30a1 1 0 0 0 1-1v-6a1 1 0 0 0-1-1H1a1 1 0 0 0-1 1z"/></symbol><symbol id="icon-cross" viewBox="0 0 24 24"><title>cross</title><path class="path1" d="M19 4q.43 0 .715.285T20 5q0 .422-.289.711L13.414 12l6.297 6.289Q20 18.578 20 19q0 .43-.285.715T19 20q-.422 0-.711-.289L12 13.414l-6.289 6.297Q5.422 20 5 20q-.43 0-.715-.285T4 19q0-.422.289-.711L10.586 12 4.289 5.711Q4 5.422 4 5q0-.43.285-.715T5 4q.422 0 .711.289L12 10.586l6.289-6.297Q18.578 4 19 4z"/></symbol><symbol id="icon-arrow-up-left2" viewBox="0 0 32 32"><title>arrow-up-left2</title><path class="path1" d="M27.414 24.586L10.828 8H18a2 2 0 1 0 0-4H6a2 2 0 0 0-1.999 2H4v12a2 2 0 1 0 4 0v-7.172l16.586 16.586c.39.391.902.586 1.414.586s1.024-.195 1.414-.586a2 2 0 0 0 0-2.828z"/></symbol><symbol id="icon-arrow-up2" viewBox="0 0 32 32"><title>arrow-up2</title><path class="path1" d="M27.414 12.586l-10-10a2 2 0 0 0-2.828 0l-10 10a2 2 0 1 0 2.828 2.828L14 8.828V28a2 2 0 1 0 4 0V8.828l6.586 6.586c.39.39.902.586 1.414.586s1.024-.195 1.414-.586a2 2 0 0 0 0-2.828z"/></symbol><symbol id="icon-arrow-up-right2" viewBox="0 0 32 32"><title>arrow-up-right2</title><path class="path1" d="M7.414 27.414L24 10.828V18a2 2 0 1 0 4 0V6a2 2 0 0 0-2-1.999V4H14a2 2 0 1 0 0 4h7.172L4.586 24.586C4.195 24.976 4 25.488 4 26s.195 1.024.586 1.414a2 2 0 0 0 2.828 0z"/></symbol><symbol id="icon-arrow-right2" viewBox="0 0 32 32"><title>arrow-right2</title><path class="path1" d="M19.414 27.414l10-10a2 2 0 0 0 0-2.828l-10-10a2 2 0 1 0-2.828 2.828L23.172 14H4a2 2 0 1 0 0 4h19.172l-6.586 6.586c-.39.39-.586.902-.586 1.414s.195 1.024.586 1.414a2 2 0 0 0 2.828 0z"/></symbol><symbol id="icon-arrow-down-right2" viewBox="0 0 32 32"><title>arrow-down-right2</title><path class="path1" d="M4.586 7.414L21.172 24h-7.171a2 2 0 1 0 0 4h12A2 2 0 0 0 28 26h.001V14a2 2 0 1 0-4 0v7.172L7.415 4.586C7.024 4.195 6.513 4 6.001 4s-1.024.195-1.414.586a2 2 0 0 0 0 2.828z"/></symbol><symbol id="icon-arrow-down2" viewBox="0 0 32 32"><title>arrow-down2</title><path class="path1" d="M27.414 19.414l-10 10a2 2 0 0 1-2.828 0l-10-10a2 2 0 1 1 2.828-2.828L14 23.172V4a2 2 0 1 1 4 0v19.172l6.586-6.586c.39-.39.902-.586 1.414-.586s1.024.195 1.414.586a2 2 0 0 1 0 2.828z"/></symbol><symbol id="icon-arrow-down-left2" viewBox="0 0 32 32"><title>arrow-down-left2</title><path class="path1" d="M24.586 4.586L8 21.172V14a2 2 0 1 0-4 0v12a2 2 0 0 0 2 1.999V28h12a2 2 0 1 0 0-4h-7.172L27.414 7.414a1.996 1.996 0 0 0 0-2.828 2 2 0 0 0-2.828 0z"/></symbol><symbol id="icon-arrow-left2" viewBox="0 0 32 32"><title>arrow-left2</title><path class="path1" d="M12.586 27.414l-10-10a2 2 0 0 1 0-2.828l10-10a2 2 0 1 1 2.828 2.828L8.828 14H28a2 2 0 1 1 0 4H8.828l6.586 6.586c.39.39.586.902.586 1.414s-.195 1.024-.586 1.414a2 2 0 0 1-2.828 0z"/></symbol><symbol id="icon-circle-up" viewBox="0 0 32 32"><title>circle-up</title><path class="path1" d="M0 16c0 8.837 7.163 16 16 16s16-7.163 16-16S24.837 0 16 0 0 7.163 0 16zm29 0c0 7.18-5.82 13-13 13S3 23.18 3 16 8.82 3 16 3s13 5.82 13 13z"/><path class="path2" d="M22.086 20.914l2.829-2.829-8.914-8.914-8.914 8.914 2.828 2.828 6.086-6.086z"/></symbol><symbol id="icon-circle-right" viewBox="0 0 32 32"><title>circle-right</title><path class="path1" d="M16 0C7.163 0 0 7.163 0 16s7.163 16 16 16 16-7.163 16-16S24.837 0 16 0zm0 29C8.82 29 3 23.18 3 16S8.82 3 16 3s13 5.82 13 13-5.82 13-13 13z"/><path class="path2" d="M11.086 22.086l2.829 2.829 8.914-8.914-8.914-8.914-2.828 2.828 6.086 6.086z"/></symbol><symbol id="icon-circle-down" viewBox="0 0 32 32"><title>circle-down</title><path class="path1" d="M32 16c0-8.837-7.163-16-16-16S0 7.163 0 16s7.163 16 16 16 16-7.163 16-16zM3 16C3 8.82 8.82 3 16 3s13 5.82 13 13-5.82 13-13 13S3 23.18 3 16z"/><path class="path2" d="M9.914 11.086l-2.829 2.829 8.914 8.914 8.914-8.914-2.828-2.828-6.086 6.086z"/></symbol><symbol id="icon-circle-left" viewBox="0 0 32 32"><title>circle-left</title><path class="path1" d="M16 32c8.837 0 16-7.163 16-16S24.837 0 16 0 0 7.163 0 16s7.163 16 16 16zm0-29c7.18 0 13 5.82 13 13s-5.82 13-13 13S3 23.18 3 16 8.82 3 16 3z"/><path class="path2" d="M20.914 9.914l-2.829-2.829-8.914 8.914 8.914 8.914 2.828-2.828-6.086-6.086z"/></symbol><symbol id="icon-checkbox-checked" viewBox="0 0 32 32"><title>checkbox-checked</title><path class="path1" d="M28 0H4C1.8 0 0 1.8 0 4v24c0 2.2 1.8 4 4 4h24c2.2 0 4-1.8 4-4V4c0-2.2-1.8-4-4-4zM14 24.828l-7.414-7.414 2.828-2.828L14 19.172l9.586-9.586 2.828 2.828L14 24.828z"/></symbol><symbol id="icon-checkbox-unchecked" viewBox="0 0 32 32"><title>checkbox-unchecked</title><path class="path1" d="M28 0H4C1.8 0 0 1.8 0 4v24c0 2.2 1.8 4 4 4h24c2.2 0 4-1.8 4-4V4c0-2.2-1.8-4-4-4zm0 28H4V4h24v24z"/></symbol><symbol id="icon-google2" viewBox="0 0 32 32"><title>google2</title><path class="path1" d="M29 0H3C1.35 0 0 1.35 0 3v26c0 1.65 1.35 3 3 3h26c1.65 0 3-1.35 3-3V3c0-1.65-1.35-3-3-3zM16.238 28c-6.631 0-12-5.369-12-12s5.369-12 12-12c3.238 0 5.95 1.181 8.037 3.138l-3.256 3.138c-.894-.856-2.45-1.85-4.781-1.85-4.1 0-7.438 3.394-7.438 7.575s3.344 7.575 7.438 7.575c4.75 0 6.531-3.413 6.806-5.175h-6.806v-4.113h11.331c.1.6.188 1.2.188 1.988.006 6.856-4.588 11.725-11.519 11.725z"/></symbol><symbol id="icon-facebook2" viewBox="0 0 82 82"><title>facebook2</title><path class="st0" d="M41 82C18.4 82 0 63.6 0 41S18.4 0 41 0s41 18.4 41 41-18.4 41-41 41zm0-80C19.5 2 2 19.5 2 41s17.5 39 39 39 39-17.5 39-39S62.5 2 41 2z"/><path class="st0" d="M32.3 34.9H36v-3.6c0-1.6 0-4.1 1.2-5.6 1.2-1.6 2.9-2.7 5.8-2.7 4.7 0 6.7.7 6.7.7l-.9 5.5s-1.6-.4-3-.4-2.7.5-2.7 2V35H49l-.4 5.4H43V59h-7V40.3h-3.7v-5.4z"/></symbol><symbol id="icon-instagram" viewBox="0 0 82 82"><title>instagram</title><path class="st0" d="M41 82C18.4 82 0 63.6 0 41S18.4 0 41 0s41 18.4 41 41-18.4 41-41 41zm0-80C19.5 2 2 19.5 2 41s17.5 39 39 39 39-17.5 39-39S62.5 2 41 2z"/><path class="st0" d="M41 25c5.2 0 5.8 0 7.9.1 1.9.1 2.9.4 3.6.7.9.4 1.6.8 2.2 1.5.7.7 1.1 1.3 1.5 2.2.3.7.6 1.7.7 3.6.1 2.1.1 2.7.1 7.9s0 5.8-.1 7.9c-.1 1.9-.4 2.9-.7 3.6-.4.9-.8 1.6-1.5 2.2-.7.7-1.3 1.1-2.2 1.5-.7.3-1.7.6-3.6.7-2.1.1-2.7.1-7.9.1s-5.8 0-7.9-.1c-1.9-.1-2.9-.4-3.6-.7-.9-.4-1.6-.8-2.2-1.5-.7-.7-1.1-1.3-1.5-2.2-.3-.7-.6-1.7-.7-3.6-.1-2.1-.1-2.7-.1-7.9s0-5.8.1-7.9c.1-1.9.4-2.9.7-3.6.4-.9.8-1.6 1.5-2.2.7-.7 1.3-1.1 2.2-1.5.7-.3 1.7-.6 3.6-.7 2.1-.1 2.7-.1 7.9-.1m0-3.5c-5.3 0-6 0-8 .1-2.1.1-3.5.4-4.7.9-1.3.5-2.4 1.2-3.5 2.2-1.1 1.1-1.8 2.2-2.2 3.5-.5 1.2-.8 2.7-.9 4.7-.1 2.1-.1 2.7-.1 8s0 6 .1 8c.1 2.1.4 3.5.9 4.7.5 1.3 1.2 2.4 2.2 3.5 1.1 1.1 2.2 1.8 3.5 2.2 1.2.5 2.7.8 4.7.9 2.1.1 2.7.1 8 .1s6 0 8-.1c2.1-.1 3.5-.4 4.7-.9 1.3-.5 2.4-1.2 3.5-2.2 1.1-1.1 1.8-2.2 2.2-3.5.5-1.2.8-2.7.9-4.7.1-2.1.1-2.7.1-8s0-6-.1-8c-.1-2.1-.4-3.5-.9-4.7-.5-1.3-1.2-2.4-2.2-3.5-1.1-1.1-2.2-1.8-3.5-2.2-1.2-.5-2.7-.8-4.7-.9-2-.1-2.7-.1-8-.1z"/><path class="st0" d="M41 31c-5.5 0-10 4.5-10 10s4.5 10 10 10 10-4.5 10-10-4.5-10-10-10zm0 16.5c-3.6 0-6.5-2.9-6.5-6.5s2.9-6.5 6.5-6.5 6.5 2.9 6.5 6.5-2.9 6.5-6.5 6.5z"/><circle class="st0" cx="51.4" cy="30.6" r="2.3"/></symbol><symbol id="icon-twitter" viewBox="0 0 82 82"><title>twitter</title><path class="st0" d="M41 82C18.4 82 0 63.6 0 41S18.4 0 41 0s41 18.4 41 41-18.4 41-41 41zm0-80C19.5 2 2 19.5 2 41s17.5 39 39 39 39-17.5 39-39S62.5 2 41 2z"/><path class="st0" d="M59 31.8c-1.3.6-2.7 1-4.2 1.2 1.5-.9 2.7-2.4 3.2-4.1-1.4.8-3 1.5-4.7 1.8-1.3-1.4-3.3-2.3-5.4-2.3-4.1 0-7.4 3.3-7.4 7.4 0 .6.1 1.1.2 1.7-6.1-.3-11.6-3.2-15.2-7.7-.6 1.1-1 2.4-1 3.7 0 2.6 1.3 4.8 3.3 6.1-1.2 0-2.3-.4-3.3-.9v.1c0 3.6 2.5 6.6 5.9 7.2-.6.2-1.3.3-1.9.3-.5 0-.9 0-1.4-.1.9 2.9 3.7 5.1 6.9 5.1-2.5 2-5.7 3.2-9.2 3.2-.6 0-1.2 0-1.8-.1 3.3 2.1 7.2 3.3 11.3 3.3 13.6 0 21-11.3 21-21v-1c1.5-1.1 2.7-2.4 3.7-3.9"/></symbol><symbol id="icon-tripadvisor" viewBox="0 0 82 82"><path class="st0" d="M41 82C18.4 82 0 63.6 0 41S18.4 0 41 0s41 18.4 41 41-18.4 41-41 41zm0-80C19.5 2 2 19.5 2 41s17.5 39 39 39 39-17.5 39-39S62.5 2 41 2z"/><circle class="st0" cx="28.6" cy="43.1" r="1.9"/><circle class="st0" cx="52.6" cy="43.1" r="1.9"/><path class="st0" d="M28.9 37.3c-3.2 0-5.8 2.6-5.8 5.8 0 3.2 2.6 5.8 5.8 5.8 3.2 0 5.8-2.6 5.8-5.8 0-3.2-2.6-5.8-5.8-5.8zm0 9.8c-2.2 0-4-1.8-4-4s1.8-4 4-4 4 1.8 4 4-1.8 4-4 4zM65 31.4h-8c-4.1-2.7-9.6-4.4-16-4.4s-12.3 1.7-16.4 4.4H17c1.2 1.4 2.2 3.4 2.4 4.8-1.4 2-2.3 4.4-2.3 7 0 6.6 5.3 11.9 11.9 11.9 3.7 0 7.1-1.7 9.3-4.4.9 1 2.4 3.1 2.7 3.8 0 0 1.7-2.6 2.7-3.7 2.2 2.7 5.5 4.4 9.3 4.4 6.6 0 11.9-5.3 11.9-11.9 0-2.6-.9-5-2.3-7 .2-1.5 1.1-3.5 2.4-4.9zM29.1 52.8c-5.3 0-9.6-4.3-9.6-9.6s4.3-9.6 9.6-9.6 9.6 4.3 9.6 9.6c0 5.2-4.3 9.6-9.6 9.6zm0-21.6c3.4-1.5 7.7-2.3 11.9-2.3 4.3 0 8.1.8 11.6 2.3-6.5.2-11.6 5.5-11.6 11.9 0-6.5-5.3-11.9-11.9-11.9zm23.8 21.6c-5.3 0-9.6-4.3-9.6-9.6s4.3-9.6 9.6-9.6 9.6 4.3 9.6 9.6c0 5.2-4.3 9.6-9.6 9.6zm0-15.5c-3.2 0-5.8 2.6-5.8 5.8 0 3.2 2.6 5.8 5.8 5.8 3.2 0 5.8-2.6 5.8-5.8 0-3.2-2.6-5.8-5.8-5.8zm0 9.8c-2.2 0-4-1.8-4-4s1.8-4 4-4 4 1.8 4 4c.1 2.2-1.7 4-4 4zm14.8-13.8h-.4v-1.6h.6c.3 0 .6 0 .6.5 0 .2-.1.4-.3.4l.4.7h-.4l-.3-.6h-.1v.6zm0-.9h.3c.1 0 .1-.1.1-.2s0-.2-.1-.2h-.3v.4z"/><path class="st0" d="M67.9 31.1c-.8 0-1.4.6-1.4 1.4 0 .8.6 1.4 1.4 1.4.8 0 1.4-.6 1.4-1.4.1-.7-.6-1.4-1.4-1.4zm0 2.6c-.6 0-1.2-.5-1.2-1.2 0-.6.5-1.2 1.2-1.2.6 0 1.2.5 1.2 1.2s-.5 1.2-1.2 1.2z"/></symbol><symbol id="icon-youtube" viewBox="0 0 32 32"><title>youtube</title><path class="path1" d="M31.681 9.6s-.313-2.206-1.275-3.175C29.187 5.15 27.825 5.144 27.2 5.069c-4.475-.325-11.194-.325-11.194-.325h-.012s-6.719 0-11.194.325c-.625.075-1.987.081-3.206 1.356C.631 7.394.325 9.6.325 9.6s-.319 2.588-.319 5.181v2.425c0 2.587.319 5.181.319 5.181s.313 2.206 1.269 3.175c1.219 1.275 2.819 1.231 3.531 1.369 2.563.244 10.881.319 10.881.319s6.725-.012 11.2-.331c.625-.075 1.988-.081 3.206-1.356.962-.969 1.275-3.175 1.275-3.175s.319-2.587.319-5.181v-2.425c-.006-2.588-.325-5.181-.325-5.181zM12.694 20.15v-8.994l8.644 4.513-8.644 4.481z"/></symbol><symbol id="icon-vimeo2" viewBox="0 0 32 32"><title>vimeo2</title><path class="path1" d="M29 0H3C1.35 0 0 1.35 0 3v26c0 1.65 1.35 3 3 3h26c1.65 0 3-1.35 3-3V3c0-1.65-1.35-3-3-3zm-2.075 10.625c-.1 2.25-1.675 5.331-4.719 9.244C19.062 23.956 16.4 26 14.225 26c-1.35 0-2.488-1.244-3.419-3.731-.625-2.281-1.244-4.563-1.869-6.844-.688-2.488-1.431-3.731-2.225-3.731-.175 0-.781.363-1.813 1.088l-1.087-1.4c1.144-1 2.269-2.006 3.375-3.006 1.525-1.313 2.662-2.006 3.425-2.075 1.8-.175 2.906 1.056 3.325 3.687.45 2.844.762 4.606.938 5.3.519 2.356 1.088 3.531 1.712 3.531.481 0 1.212-.762 2.181-2.294s1.488-2.694 1.556-3.494c.137-1.319-.381-1.981-1.556-1.981-.556 0-1.125.125-1.712.381 1.137-3.719 3.306-5.531 6.512-5.425 2.375.069 3.494 1.606 3.356 4.619z"/></symbol><symbol id="icon-linkedin2" viewBox="0 0 32 32"><title>linkedin2</title><path class="path1" d="M12 12h5.535v2.837h.079c.77-1.381 2.655-2.837 5.464-2.837C28.92 12 30 15.637 30 20.367V30h-5.769v-8.54c0-2.037-.042-4.657-3.001-4.657-3.005 0-3.463 2.218-3.463 4.509V30H12V12z"/><path class="path2" d="M2 12h6v18H2V12z"/><path class="path3" d="M8 7a3 3 0 1 1-6 0 3 3 0 0 1 6 0z"/></symbol><symbol id="icon-pinterest" viewBox="0 0 32 32"><title>pinterest</title><path class="path1" d="M16 2.138c-7.656 0-13.863 6.206-13.863 13.863 0 5.875 3.656 10.887 8.813 12.906-.119-1.094-.231-2.781.05-3.975.25-1.081 1.625-6.887 1.625-6.887s-.412-.831-.412-2.056c0-1.925 1.119-3.369 2.506-3.369 1.181 0 1.756.887 1.756 1.95 0 1.188-.756 2.969-1.15 4.613-.331 1.381.688 2.506 2.05 2.506 2.462 0 4.356-2.6 4.356-6.35 0-3.319-2.387-5.638-5.787-5.638-3.944 0-6.256 2.956-6.256 6.019 0 1.194.456 2.469 1.031 3.163a.408.408 0 0 1 .094.4c-.106.438-.338 1.381-.387 1.575-.063.256-.2.306-.463.188-1.731-.806-2.813-3.337-2.813-5.369 0-4.375 3.175-8.387 9.156-8.387 4.806 0 8.544 3.425 8.544 8.006 0 4.775-3.012 8.625-7.194 8.625-1.406 0-2.725-.731-3.175-1.594 0 0-.694 2.644-.863 3.294-.313 1.206-1.156 2.712-1.725 3.631 1.3.4 2.675.619 4.106.619 7.656 0 13.863-6.206 13.863-13.863 0-7.662-6.206-13.869-13.863-13.869z"/></symbol><symbol id="icon-yelp" viewBox="0 0 32 32"><title>yelp</title><path class="path1" d="M19.027 20.421c-.54.545-.083 1.535-.083 1.535l4.065 6.788s.668.895 1.246.895c.581 0 1.155-.477 1.155-.477l3.214-4.594s.324-.58.331-1.087c.012-.722-1.077-.92-1.077-.92l-7.609-2.444s-.746-.198-1.242.303zM18.642 17c.389.66 1.463.468 1.463.468l7.592-2.219s1.035-.421 1.182-.982c.145-.561-.171-1.238-.171-1.238L25.08 8.755s-.314-.54-.967-.595c-.719-.061-1.162.809-1.162.809l-4.29 6.75s-.379.672-.02 1.28zm-3.587-2.632c.894-.22 1.036-1.519 1.036-1.519L16.03 2.041S15.895.708 15.296.346c-.94-.57-1.218-.272-1.487-.233L7.506 2.455s-.617.204-.939.719c-.459.73.466 1.798.466 1.798l6.551 8.93s.647.669 1.47.465zm-1.557 4.374c.023-.834-1.001-1.334-1.001-1.334l-6.775-3.423s-1.004-.414-1.491-.126c-.373.221-.704.62-.737.973l-.441 5.432s-.066.941.178 1.369c.345.608 1.482.184 1.482.184l7.909-1.748c.307-.207.846-.225.876-1.328zm1.967 2.931c-.679-.349-1.491.373-1.491.373l-5.296 5.83s-.661.892-.493 1.439c.158.513.42.768.791.948l5.319 1.679s.645.134 1.133-.008c.693-.201.565-1.286.565-1.286l.12-7.894s-.027-.76-.648-1.082z"/></symbol><symbol id="icon-diving" viewBox="0 0 64 64"><title>icon-diving</title><g id="c6fa6dec-5238-41a3-9dfd-9b22afc26178" data-name="scuba"><g id="fbf5946c-9754-48c6-87a5-f2ea5855a250" data-name="8"><path class="f9dd77a2-bc94-448c-99ec-f6f544089cf0" d="M26 52.77a5.32 5.32 0 0 1-4.71-2.84L14.37 37a.88.88 0 0 1-.06-.16L7.17 12.29a2.41 2.41 0 0 1 1.75-2.96l2-.51a2.41 2.41 0 0 1 2.21.56.87.87 0 0 0 .79.2l4.91-1.23a.86.86 0 0 0 .6-.55 2.41 2.41 0 0 1 1.69-1.53L23 5.8a2.41 2.41 0 0 1 3 1.76l5.25 25a.77.77 0 0 1 0 .16v14.69A5.33 5.33 0 0 1 26 52.77zM15.77 36.31l6.84 12.91a3.78 3.78 0 0 0 7.13-1.78V32.83L24.47 7.92a.86.86 0 0 0-.83-.64h-.21l-1.88.47a.86.86 0 0 0-.6.55 2.41 2.41 0 0 1-1.69 1.53l-4.91 1.23a2.41 2.41 0 0 1-2.21-.56.87.87 0 0 0-.79-.2l-2 .51a.86.86 0 0 0-.63 1z"/><path class="f9dd77a2-bc94-448c-99ec-f6f544089cf0" d="M25.82 49.52a2.62 2.62 0 0 1-2.32-1.4l-2.79-5.26v-.2c-.19-1 .22-3.09 3.16-3.83a5.78 5.78 0 0 1 1.39-.18 3.2 3.2 0 0 1 3.2 2.07.78.78 0 0 1 0 .23v6a2.62 2.62 0 0 1-2.62 2.63zm-3.67-7.26l2.72 5.14a1.07 1.07 0 0 0 2-.51v-5.81a1.72 1.72 0 0 0-1.69-.9 4.24 4.24 0 0 0-1 .14c-1.97.49-2.05 1.61-2.03 1.94zm-2.26-6.74a.78.78 0 0 1-.75-.56l-5.3-18.81a.77.77 0 1 1 1.49-.42l5.3 18.81a.78.78 0 0 1-.75 1zm5.45-1.36a.78.78 0 0 1-.76-.61l-4.17-19.09a.78.78 0 0 1 0-.17.78.78 0 0 1 1.53-.17l4.17 19.09a.78.78 0 0 1 0 .17.78.78 0 0 1-.61.76zm12.77 24.11a5.33 5.33 0 0 1-5.33-5.34V38.25a.78.78 0 0 1 0-.16l5.2-25a2.41 2.41 0 0 1 2.93-1.76l1.88.47a2.41 2.41 0 0 1 1.69 1.53.86.86 0 0 0 .61.55L50 15.05a.87.87 0 0 0 .79-.2 2.41 2.41 0 0 1 2.21-.56l2.05.51a2.42 2.42 0 0 1 1.76 2.93l-7.07 24.56a.88.88 0 0 1-.06.15l-6.86 13a5.32 5.32 0 0 1-4.71 2.83zm-3.77-19.94v14.61a3.78 3.78 0 0 0 7.13 1.77l6.82-12.92 7.06-24.45a.87.87 0 0 0-.63-1l-2.05-.51a.87.87 0 0 0-.79.2 2.41 2.41 0 0 1-2.21.56l-4.91-1.22A2.41 2.41 0 0 1 43 13.81a.86.86 0 0 0-.61-.55l-1.88-.47h-.21a.86.86 0 0 0-.84.64z"/><path class="f9dd77a2-bc94-448c-99ec-f6f544089cf0" d="M38.24 55a2.62 2.62 0 0 1-2.62-2.63v-6a.77.77 0 0 1 0-.23 3.2 3.2 0 0 1 3.2-2.08 5.79 5.79 0 0 1 1.39.18c2.94.73 3.36 2.82 3.17 3.82a.81.81 0 0 1-.06.18l-2.78 5.27a2.62 2.62 0 0 1-2.3 1.49zm-1.07-8.44v5.81a1.07 1.07 0 0 0 2 .5l2.71-5.14c0-.36-.1-1.46-2-1.94a4.25 4.25 0 0 0-1-.14 1.72 1.72 0 0 0-1.7.93zM44.15 41h-.21a.77.77 0 0 1-.54-1l5.27-18.82a.77.77 0 1 1 1.49.42L44.9 40.45a.78.78 0 0 1-.75.55zm-5.45-1.34h-.16a.78.78 0 0 1-.61-.76.79.79 0 0 1 0-.16l4.14-19.1a.78.78 0 0 1 1.53.16.79.79 0 0 1 0 .16L39.46 39a.78.78 0 0 1-.76.66z"/></g></g></symbol><symbol id="icon-fish" viewBox="0 0 64 64"><title>icon-fish</title><path class="36eb0469-8059-4cfc-98b1-b717070ad60e" d="M28.84 42.91c-7.2 0-15.59-2.65-21.35-4.87-2.5-1-4-2.5-4.27-4.31-.2-1.39.29-3.6 3.74-6.21 6.05-4.58 15.57-6.2 21.88-6.2a42.54 42.54 0 0 1 17.32 3.31c4.82 2.22 7.47 5.23 7.47 8.49 0 2.24-1.31 5.36-7.53 7.52-4.33 1.48-10.29 2.27-17.26 2.27zm0-20.17c-6.09 0-15.25 1.55-21 5.91-2.29 1.73-3.39 3.42-3.19 4.87C4.81 34.79 6 35.94 8 36.7c5.65 2.18 13.85 4.78 20.83 4.78 6.81 0 12.61-.76 16.79-2.21 3-1 6.57-2.95 6.57-6.16 0-2.67-2.36-5.22-6.63-7.19a41.1 41.1 0 0 0-16.72-3.18z"/><path class="36eb0469-8059-4cfc-98b1-b717070ad60e" d="M17 41.13a.72.72 0 0 1-.37-1.33c3-1.79 4.62-3.9 4.81-6.27.36-4.59-4.66-8.8-4.71-8.85a.72.72 0 0 1 .91-1.1c.23.19 5.64 4.74 5.22 10.06-.2 2.86-2.06 5.36-5.48 7.36a.71.71 0 0 1-.38.13zm43.1-.31a.72.72 0 0 1-.52-.22c-1.28-1.32-5-4.75-7.08-4.75a.72.72 0 0 1 0-1.43c2.18 0 5.19 2.45 6.87 4V25.71c-1.79 1.56-5.11 4.13-7.48 4.13a.72.72 0 1 1 0-1.43c2.22 0 6.31-3.49 7.69-4.84a.72.72 0 0 1 1.21.51v16a.72.72 0 0 1-.72.72zm-49.63-6.64a2.47 2.47 0 1 1 2.47-2.47 2.47 2.47 0 0 1-2.47 2.47zm0-3.51a1 1 0 1 0 1 1 1 1 0 0 0-1-1zm17.33-8.15a.72.72 0 0 1-.32-1.36L37 16.42a.72.72 0 0 1 1 .87 23.44 23.44 0 0 0-1.2 4.51.72.72 0 1 1-1.43 0 15.34 15.34 0 0 1 .72-3.35l-8 4a.71.71 0 0 1-.29.07zm9.49 25.14a.71.71 0 0 1-.32-.08l-9.49-4.74a.72.72 0 1 1 .64-1.28l8 4a15.34 15.34 0 0 1-.72-3.35.72.72 0 0 1 1.43 0 23.42 23.42 0 0 0 1.17 4.5.72.72 0 0 1-.68.95zm6.4-17.85a.71.71 0 0 1-.32-.08C35 25.51 24.16 28.16 24 28.19a.72.72 0 0 1-.35-1.39 36.11 36.11 0 0 1 6.79-.87c3.61-.14 8.89.19 13.53 2.53a.72.72 0 0 1-.32 1.35zM20.64 42a.72.72 0 0 1-.39-1.32s3.82-2.52 3.91-6.09a.72.72 0 1 1 1.43 0c-.11 4.41-4.38 7.17-4.59 7.28a.71.71 0 0 1-.36.13z"/></symbol><symbol id="icon-relaxing" viewBox="0 0 64 64"><title>icon-relaxing</title><g id="9b5d18d8-734d-4f95-ba3a-38c8a8ac9fda" data-name="relaxing"><path class="73b5958a-850c-4d12-a853-ec5f93acd5d8" d="M20.55 24.9l17.21 3L32.78 56a1.32 1.32 0 0 0 1.07 1.54h.23a1.33 1.33 0 0 0 1.3-1.09l5-28.08 18 3.17h.23a1.33 1.33 0 0 0 1.31-1.1 20.53 20.53 0 0 0-16.69-23.7h-.09a20.74 20.74 0 0 0-3.5-.3 20.46 20.46 0 0 0-20.16 16.93 1.33 1.33 0 0 0 1.08 1.54zm36.88 3.81l-5.53-1c.83-6 .06-11.48-1.92-15.36a17.87 17.87 0 0 1 7.45 16.37zM43.71 9.62c4.29 1.67 6.71 9.25 5.59 17.66l-8.46-1.49zm-2.65-.27l-2.84 16-4.09-.72L30.5 24c1.72-7.88 6.12-14 10.56-14.66zm-6 .33c-3.25 3-5.9 7.95-7.17 13.84l-5.53-1A17.82 17.82 0 0 1 35.07 9.67zM5.11 43h17.36a1.33 1.33 0 0 0 1.32-1.2v-1a10 10 0 1 0-20.1 0v1A1.33 1.33 0 0 0 5.11 43zm8.68-9.57a7.41 7.41 0 0 1 7.38 6.92H6.41a7.41 7.41 0 0 1 7.38-6.93z"/><path class="73b5958a-850c-4d12-a853-ec5f93acd5d8" d="M40.28 44.14a1.33 1.33 0 0 0 0 2.65h13.84a1.33 1.33 0 0 0 0-2.65zM5.07 46.79c8.69-.1 17.68-.1 26.71 0a1.33 1.33 0 0 0 0-2.65c-9.05-.09-18.06-.09-26.77 0a1.33 1.33 0 0 0 0 2.65zm0 4.36h25.8a1.33 1.33 0 0 0 0-2.65H5.07a1.33 1.33 0 0 0 0 2.65z"/></g></symbol><symbol id="icon-snorkeling" viewBox="0 0 64 64"><title>icon-snorkeling</title><g id="08147ca9-d920-4489-b561-d619d9791807" data-name="snorkeling"><path class="6dec74ec-1845-4bde-9b21-87d4d1960bb7" d="M59.24 26.78c-.36-1.09-1.43-4.36-17.13-5.13C38.18 11.4 34.9 6.21 32.34 6.21h-.67c-2.56 0-5.85 5.19-9.77 15.43-15.7.77-16.78 4-17.13 5.13-.29.89-1.06 3.24 11.47 13C12.56 55 15.15 56.69 16 57.26a3.69 3.69 0 0 0 2.07.53c3.43 0 9.35-2.93 13.92-5.52 4.57 2.59 10.49 5.52 13.92 5.52a3.69 3.69 0 0 0 2.09-.53c.86-.57 3.45-2.29-.22-17.48 12.52-9.78 11.75-12.11 11.46-13zM45.81 38.44a1.13 1.13 0 0 0-.41 1.16c2.8 11.32 2.1 15.27 1.34 15.78a1.52 1.52 0 0 1-.82.15c-2.36 0-7.23-2-13.36-5.54a1.13 1.13 0 0 0-1.12 0c-6.13 3.52-11 5.54-13.36 5.54a1.53 1.53 0 0 1-.82-.15c-.76-.51-1.46-4.45 1.34-15.78a1.13 1.13 0 0 0-.41-1.16C8.9 31.27 6.9 28.06 6.9 27.48c.45-1.37 4.87-3.15 15.83-3.62a1.13 1.13 0 0 0 1-.73C28.19 11.35 31 8.53 31.66 8.47h.67c.64.06 3.48 2.88 7.93 14.67a1.13 1.13 0 0 0 1 .73c11 .47 15.38 2.24 15.82 3.56.02.62-1.98 3.84-11.27 11.01z"/><path class="6dec74ec-1845-4bde-9b21-87d4d1960bb7" d="M32 19.72A3.27 3.27 0 1 0 35.27 23 3.27 3.27 0 0 0 32 19.72zM32 24a1 1 0 1 1 1-1 1 1 0 0 1-1 1zm0-6.31a2 2 0 1 0-2-2 2 2 0 0 0 2 2zm0-2.25a.21.21 0 1 1-.21.21.21.21 0 0 1 .21-.21zm-5.81 26.95a3.27 3.27 0 1 0 1 4.5 3.27 3.27 0 0 0-1-4.5zm-.87 3.31a1 1 0 0 1-1.4.32 1 1 0 1 1 1.4-.32zm-3.66 3.96a2 2 0 1 0 .91 1.27 2 2 0 0 0-.91-1.27zm-.9 1.85a.23.23 0 0 1-.29.07.22.22 0 0 1-.09-.13.21.21 0 0 1 0-.16.21.21 0 0 1 .18-.1.23.23 0 0 1 .11 0 .21.21 0 0 1 .08.32zm21.96-5.61a3.27 3.27 0 1 0-1.45 2 3.25 3.25 0 0 0 1.45-2zm-2.2-.51a1 1 0 0 1-.45.63 1 1 0 0 1-1.4-.32 1 1 0 1 1 1.85-.31zm2.9 3.96a2 2 0 0 0 0 4.09 2 2 0 0 0 0-4.09zm.11 2.22a.23.23 0 0 1-.29-.07.21.21 0 0 1 .07-.29.22.22 0 0 1 .11 0 .21.21 0 0 1 .2.26.21.21 0 0 1-.09.1zM43 26.54a3.27 3.27 0 0 0 .37 6.52h.38a3.27 3.27 0 1 0-.75-6.52zm.49 4.25a1 1 0 1 1-.23-2h.12a1 1 0 0 1 .11 2zm6.94-3.87a2 2 0 0 0 .23 4.08h.23a2 2 0 1 0-.47-4.06zm.4 2.16a.22.22 0 0 1-.16.08.21.21 0 0 1-.21-.19.21.21 0 0 1 .18-.23.21.21 0 0 1 .21.18.22.22 0 0 1-.02.16zm-30.2 3.98a3.27 3.27 0 1 0-.38 0zm-1-3.38a1 1 0 0 1 1-.9h.12a1 1 0 0 1 .89 1.12 1 1 0 0 1-2-.23zm-6.06-2.76A2 2 0 0 0 13.1 31h.23a2 2 0 0 0 .23-4.08zm-.26 2.24a.21.21 0 0 1 0-.42.21.21 0 0 1 .14.08.21.21 0 0 1 0 .15.21.21 0 0 1-.13.19z"/></g></symbol><symbol id="icon-play" viewBox="0 0 32 32"><title>play-alt</title><path class="path1" d="M16 0C7.164 0 0 7.164 0 16s7.164 16 16 16 16-7.164 16-16S24.836 0 16 0zm-6 24V8l16.008 8L10 24z"/></symbol></defs></svg>